<svg width="343" height="121" viewBox="0 0 343 121" fill="none" xmlns="http://www.w3.org/2000/svg">
<path d="M69.7841 40.0984C73.182 40.0984 75.9365 37.3439 75.9365 33.946C75.9365 30.5482 73.182 27.7936 69.7841 27.7936C66.3862 27.7936 63.6317 30.5482 63.6317 33.946C63.6317 37.3439 66.3862 40.0984 69.7841 40.0984Z" fill="#61DAFB"/>
<path d="M93.1524 23.8C91.9651 23.3682 90.7238 22.9365 89.4286 22.5587C89.7524 21.2635 90.0222 19.9682 90.2381 18.727C91.3714 11.6032 90.1302 6.58412 86.6762 4.64126C85.6508 4.04761 84.5175 3.77777 83.2222 3.77777C79.4444 3.77777 74.6413 6.58412 69.7841 11.2794C64.927 6.58412 60.1238 3.77777 56.346 3.77777C55.0508 3.77777 53.9175 4.04761 52.8921 4.64126C49.4381 6.63809 48.1968 11.6571 49.3302 18.727C49.546 19.9682 49.8159 21.2635 50.1397 22.5587C48.8444 22.9365 47.6032 23.3143 46.4159 23.8C39.6698 26.3905 36 29.9524 36 33.946C36 37.9397 39.7238 41.5016 46.4159 44.0921C47.6032 44.5238 48.8444 44.9556 50.1397 45.3333C49.8159 46.6286 49.546 47.9238 49.3302 49.1651C48.1968 56.2889 49.4381 61.3079 52.8921 63.2508C53.9175 63.8444 55.0508 64.1143 56.346 64.1143C60.1778 64.1143 64.981 61.3079 69.7841 56.6127C74.6413 61.3079 79.4444 64.1143 83.2222 64.1143C84.5175 64.1143 85.6508 63.8444 86.6762 63.2508C90.1302 61.254 91.3714 56.2349 90.2381 49.1651C90.0222 47.9238 89.7524 46.6286 89.4286 45.3333C90.7238 44.9556 91.9651 44.5778 93.1524 44.0921C99.8984 41.5016 103.568 37.9397 103.568 33.946C103.568 29.9524 99.8984 26.3905 93.1524 23.8ZM85.1651 7.33968C87.3778 8.63491 88.1333 12.6286 87.2159 18.2952C87.054 19.4286 86.7841 20.6159 86.4603 21.8571C83.654 21.2095 80.6857 20.7778 77.5556 20.5079C75.7206 17.9175 73.8317 15.5968 71.9429 13.4921C75.9365 9.55237 79.9841 6.85396 83.2762 6.85396C83.9778 6.85396 84.6254 7.01587 85.1651 7.33968V7.33968ZM79.1206 39.3429C78.1492 41.0698 77.0159 42.7968 75.8286 44.5238C73.8317 44.6857 71.8349 44.7397 69.7841 44.7397C67.6794 44.7397 65.6825 44.6857 63.7397 44.5238C62.5524 42.7968 61.473 41.0698 60.5016 39.3429C59.4762 37.5619 58.5048 35.727 57.6413 33.946C58.5048 32.1651 59.4762 30.3302 60.5016 28.5492C61.473 26.8222 62.6064 25.0952 63.7937 23.3682C65.7905 23.2063 67.7873 23.1524 69.8381 23.1524C71.9429 23.1524 73.9397 23.2063 75.8825 23.3682C77.0698 25.0952 78.1492 26.8222 79.1206 28.5492C80.146 30.3302 81.1175 32.1651 81.981 33.946C81.0635 35.727 80.146 37.5079 79.1206 39.3429ZM83.6 37.5619C84.4095 39.4508 85.0571 41.2857 85.6508 43.1206C83.8159 43.5524 81.873 43.8762 79.8222 44.146C80.4698 43.1206 81.1714 42.0413 81.7651 40.9079C82.4127 39.7746 83.0063 38.6413 83.6 37.5619ZM69.7841 52.1873C68.4889 50.7841 67.2476 49.273 66.0603 47.7079C67.3016 47.7619 68.5429 47.8159 69.7841 47.8159C71.0254 47.8159 72.2667 47.7619 73.5079 47.7079C72.3206 49.273 71.0794 50.7841 69.7841 52.1873ZM59.746 44.0921C57.6952 43.8222 55.7524 43.4984 53.9175 43.0667C54.5111 41.2857 55.1587 39.3968 55.9683 37.5079C56.5619 38.5873 57.1556 39.7206 57.8032 40.8C58.4508 41.9873 59.0984 43.0127 59.746 44.0921V44.0921ZM55.9683 30.3302C55.1587 28.4413 54.5111 26.6063 53.9175 24.7714C55.7524 24.3397 57.6952 24.0159 59.746 23.746C59.0984 24.7714 58.3968 25.8508 57.8032 26.9841C57.1556 28.1175 56.5619 29.2508 55.9683 30.3302V30.3302ZM69.7841 15.7048C71.0794 17.1079 72.3206 18.619 73.5079 20.1841C72.2667 20.1302 71.0254 20.0762 69.7841 20.0762C68.5429 20.0762 67.3016 20.1302 66.0603 20.1841C67.2476 18.619 68.4889 17.1079 69.7841 15.7048V15.7048ZM81.7651 27.0381L79.8222 23.8C81.873 24.0698 83.8159 24.3936 85.6508 24.8254C85.0571 26.6063 84.4095 28.4952 83.6 30.3841C83.0063 29.2508 82.4127 28.1175 81.7651 27.0381V27.0381ZM52.3524 18.2952C51.4349 12.6286 52.1905 8.63491 54.4032 7.33968C54.9429 7.01587 55.5905 6.85396 56.2921 6.85396C59.5302 6.85396 63.5778 9.49841 67.6254 13.4921C65.7365 15.5429 63.8476 17.9175 62.0127 20.5079C58.8825 20.7778 55.9143 21.2635 53.1079 21.8571C52.7841 20.6159 52.5683 19.4286 52.3524 18.2952ZM39.0222 33.946C39.0222 31.4095 42.0984 28.7111 47.4952 26.7143C48.5746 26.2825 49.7619 25.9048 50.9492 25.5809C51.8127 28.2794 52.8921 31.1397 54.1873 34C52.8921 36.8603 51.7587 39.6667 50.9492 42.3651C43.5016 40.2063 39.0222 36.9682 39.0222 33.946V33.946ZM54.4032 60.5524C52.1905 59.2571 51.4349 55.2635 52.3524 49.5968C52.5143 48.4635 52.7841 47.2762 53.1079 46.0349C55.9143 46.6825 58.8825 47.1143 62.0127 47.3841C63.8476 49.9746 65.7365 52.2952 67.6254 54.4C63.6317 58.3397 59.5841 61.0381 56.2921 61.0381C55.5905 61.0381 54.9429 60.8762 54.4032 60.5524ZM87.2159 49.5968C88.1333 55.2635 87.3778 59.2571 85.1651 60.5524C84.6254 60.8762 83.9778 61.0381 83.2762 61.0381C80.0381 61.0381 75.9905 58.3936 71.9429 54.4C73.8317 52.3492 75.7206 49.9746 77.5556 47.3841C80.6857 47.1143 83.654 46.6286 86.4603 46.0349C86.7841 47.2762 87 48.4635 87.2159 49.5968V49.5968ZM92.073 41.1778C90.9937 41.6095 89.8064 41.9873 88.6191 42.3111C87.7556 39.6127 86.6762 36.7524 85.381 33.8921C86.6762 31.0317 87.8095 28.2254 88.6191 25.527C96.0667 27.6857 100.546 30.9238 100.546 33.946C100.546 36.4825 97.4159 39.1809 92.073 41.1778V41.1778Z" fill="#61DAFB"/>
<path d="M201.726 52.4032L174.175 68V55.8517L191.315 46.4127L201.726 52.4032ZM203.615 50.6978V18.1063L193.533 23.9349V44.88L203.609 50.6924L203.615 50.6978ZM144.206 52.4032L171.73 67.9892V55.8517L154.584 46.4127L144.206 52.4032ZM142.318 50.6978V18.1063L152.399 23.9349V44.88L142.318 50.6978ZM143.499 15.9962L171.757 0V11.7435L153.651 21.7006L153.505 21.7816L143.499 15.9962ZM202.422 15.9962L174.175 0V11.7435L192.281 21.6952L192.427 21.7762L202.433 15.9962H202.422Z" fill="#8ED6FB"/>
<path d="M171.757 53.0886L154.817 43.7683V25.3219L171.757 35.0794V53.0886ZM174.175 53.0886L191.116 43.7791V25.3219L174.175 35.0794V53.0886ZM155.966 23.2064L172.966 13.8483L189.966 23.2064L172.966 33.007L155.966 23.2064Z" fill="#1C78C0"/>
<path d="M306.362 2.15875H242.717C242.707 2.15875 242.698 2.16711 242.698 2.17741V65.8226C242.698 65.8329 242.707 65.8413 242.717 65.8413H306.362C306.373 65.8413 306.381 65.8329 306.381 65.8226V2.17741C306.381 2.16711 306.373 2.15875 306.362 2.15875Z" fill="#F7DF1E"/>
<path d="M282.998 48.1793C284.241 50.2938 285.983 51.7864 288.843 51.7864C291.331 51.7864 292.948 50.5426 292.948 48.8012C292.948 46.8112 291.331 46.0649 288.595 44.8211L287.102 44.1992C282.749 42.3335 279.888 40.0946 279.888 35.2438C279.888 30.7661 283.246 27.2835 288.595 27.2835C292.45 27.2835 295.187 28.6517 297.053 32.1343L292.45 35.1194C291.455 33.2537 290.336 32.5075 288.595 32.5075C286.853 32.5075 285.734 33.6269 285.734 35.1194C285.734 36.8608 286.853 37.607 289.465 38.7265L290.958 39.3484C296.058 41.5872 298.918 43.7017 298.918 48.8012C298.918 54.1496 294.689 57.1347 288.968 57.1347C283.371 57.1347 279.764 54.5227 278.022 51.0401L282.998 48.1793ZM261.853 48.6769C262.848 50.2938 263.594 51.7864 265.709 51.7864C267.699 51.7864 268.943 51.0401 268.943 48.055V27.4079H274.913V47.8062C274.913 54.0252 271.306 56.7616 265.958 56.7616C261.107 56.7616 258.37 54.274 257.002 51.2888L261.853 48.6769Z" fill="black"/>
<path d="M22.0117 112H18.7134V100.499H6.16943V112H2.88818V87.1172H6.16943V97.8154H18.7134V87.1172H22.0117V112ZM35.0171 112.342C32.5106 112.342 30.4712 111.521 28.8989 109.881C27.3267 108.229 26.5405 106.024 26.5405 103.267V102.686C26.5405 100.852 26.888 99.2168 27.583 97.7812C28.2894 96.3343 29.2692 95.2064 30.5225 94.3975C31.7871 93.5771 33.1543 93.167 34.624 93.167C37.028 93.167 38.8965 93.9588 40.2295 95.5425C41.5625 97.1261 42.229 99.3934 42.229 102.344V103.66H29.7021C29.7477 105.483 30.2775 106.958 31.2915 108.086C32.3169 109.203 33.6157 109.761 35.188 109.761C36.3045 109.761 37.2502 109.533 38.0249 109.078C38.7996 108.622 39.4775 108.018 40.0586 107.266L41.9897 108.77C40.4403 111.151 38.116 112.342 35.0171 112.342ZM34.624 95.7646C33.348 95.7646 32.277 96.2318 31.4111 97.166C30.5452 98.0889 30.0098 99.3877 29.8047 101.062H39.0674V100.823C38.9762 99.2168 38.5433 97.9749 37.7686 97.0977C36.9938 96.209 35.9456 95.7646 34.624 95.7646ZM57.3193 112C57.137 111.635 56.9889 110.986 56.875 110.052C55.4053 111.578 53.6507 112.342 51.6113 112.342C49.7884 112.342 48.2902 111.829 47.1167 110.804C45.9546 109.767 45.3735 108.457 45.3735 106.873C45.3735 104.948 46.1027 103.455 47.561 102.396C49.0308 101.325 51.0929 100.789 53.7476 100.789H56.8237V99.3364C56.8237 98.2313 56.4933 97.354 55.8325 96.7046C55.1717 96.0438 54.1976 95.7134 52.9102 95.7134C51.7822 95.7134 50.8366 95.9982 50.0732 96.5679C49.3099 97.1375 48.9282 97.8268 48.9282 98.6357H45.7495C45.7495 97.7129 46.0742 96.8242 46.7236 95.9697C47.3844 95.1038 48.2731 94.4202 49.3896 93.9189C50.5176 93.4176 51.7537 93.167 53.0981 93.167C55.2287 93.167 56.8978 93.7025 58.1055 94.7734C59.3132 95.833 59.9398 97.297 59.9854 99.1655V107.676C59.9854 109.374 60.2018 110.724 60.6348 111.727V112H57.3193ZM52.0728 109.59C53.064 109.59 54.0039 109.334 54.8926 108.821C55.7812 108.309 56.425 107.642 56.8237 106.822V103.028H54.3457C50.472 103.028 48.5352 104.161 48.5352 106.429C48.5352 107.42 48.8656 108.195 49.5264 108.753C50.1872 109.311 51.036 109.59 52.0728 109.59ZM64.1724 102.601C64.1724 99.7637 64.8446 97.485 66.189 95.7646C67.5334 94.0329 69.2936 93.167 71.4697 93.167C73.6344 93.167 75.3491 93.9076 76.6138 95.3887V85.75H79.7754V112H76.8701L76.7163 110.018C75.4517 111.567 73.6914 112.342 71.4355 112.342C69.2936 112.342 67.5448 111.465 66.189 109.71C64.8446 107.955 64.1724 105.665 64.1724 102.84V102.601ZM67.334 102.959C67.334 105.056 67.7669 106.696 68.6328 107.881C69.4987 109.066 70.695 109.659 72.2217 109.659C74.2269 109.659 75.6909 108.759 76.6138 106.958V98.4648C75.6681 96.7217 74.2155 95.8501 72.2559 95.8501C70.7064 95.8501 69.4987 96.4482 68.6328 97.6445C67.7669 98.8408 67.334 100.612 67.334 102.959ZM92.3706 112.342C89.8641 112.342 87.8247 111.521 86.2524 109.881C84.6802 108.229 83.894 106.024 83.894 103.267V102.686C83.894 100.852 84.2415 99.2168 84.9365 97.7812C85.6429 96.3343 86.6227 95.2064 87.876 94.3975C89.1406 93.5771 90.5078 93.167 91.9775 93.167C94.3815 93.167 96.25 93.9588 97.583 95.5425C98.916 97.1261 99.5825 99.3934 99.5825 102.344V103.66H87.0557C87.1012 105.483 87.631 106.958 88.645 108.086C89.6704 109.203 90.9692 109.761 92.5415 109.761C93.658 109.761 94.6037 109.533 95.3784 109.078C96.1532 108.622 96.8311 108.018 97.4121 107.266L99.3433 108.77C97.7938 111.151 95.4696 112.342 92.3706 112.342ZM91.9775 95.7646C90.7015 95.7646 89.6305 96.2318 88.7646 97.166C87.8988 98.0889 87.3633 99.3877 87.1582 101.062H96.4209V100.823C96.3298 99.2168 95.8968 97.9749 95.1221 97.0977C94.3473 96.209 93.2992 95.7646 91.9775 95.7646ZM112.195 96.3457C111.716 96.266 111.198 96.2261 110.64 96.2261C108.566 96.2261 107.159 97.109 106.418 98.875V112H103.257V93.5088H106.333L106.384 95.645C107.421 93.993 108.891 93.167 110.793 93.167C111.409 93.167 111.876 93.2467 112.195 93.4062V96.3457ZM126.772 93.5088L126.858 95.5596C128.214 93.9645 130.042 93.167 132.344 93.167C134.93 93.167 136.69 94.1582 137.625 96.1406C138.24 95.252 139.037 94.5342 140.017 93.9873C141.008 93.4404 142.176 93.167 143.521 93.167C147.576 93.167 149.639 95.3146 149.707 99.6099V112H146.545V99.7979C146.545 98.4762 146.243 97.4907 145.64 96.8413C145.036 96.1805 144.022 95.8501 142.598 95.8501C141.424 95.8501 140.45 96.2033 139.675 96.9097C138.901 97.6047 138.451 98.5446 138.325 99.7295V112H135.146V99.8833C135.146 97.1945 133.831 95.8501 131.199 95.8501C129.125 95.8501 127.707 96.7331 126.943 98.499V112H123.782V93.5088H126.772ZM157.927 112H154.766V93.5088H157.927V112ZM154.509 88.604C154.509 88.0913 154.663 87.6584 154.971 87.3052C155.29 86.952 155.757 86.7754 156.372 86.7754C156.987 86.7754 157.454 86.952 157.773 87.3052C158.092 87.6584 158.252 88.0913 158.252 88.604C158.252 89.1167 158.092 89.5439 157.773 89.8857C157.454 90.2275 156.987 90.3984 156.372 90.3984C155.757 90.3984 155.29 90.2275 154.971 89.8857C154.663 89.5439 154.509 89.1167 154.509 88.604ZM170.42 109.761C171.548 109.761 172.533 109.419 173.376 108.736C174.22 108.052 174.687 107.198 174.778 106.172H177.769C177.712 107.232 177.347 108.24 176.675 109.197C176.003 110.154 175.103 110.918 173.975 111.487C172.858 112.057 171.673 112.342 170.42 112.342C167.902 112.342 165.897 111.504 164.404 109.83C162.923 108.143 162.183 105.842 162.183 102.925V102.396C162.183 100.595 162.513 98.9946 163.174 97.5933C163.835 96.1919 164.78 95.1038 166.011 94.3291C167.253 93.5544 168.717 93.167 170.403 93.167C172.476 93.167 174.197 93.7879 175.564 95.0298C176.943 96.2716 177.677 97.8838 177.769 99.8662H174.778C174.687 98.6699 174.231 97.6901 173.411 96.9268C172.602 96.152 171.599 95.7646 170.403 95.7646C168.796 95.7646 167.549 96.3457 166.66 97.5078C165.783 98.6585 165.344 100.328 165.344 102.515V103.113C165.344 105.244 165.783 106.884 166.66 108.035C167.537 109.186 168.791 109.761 170.42 109.761ZM190.261 96.3457C189.783 96.266 189.264 96.2261 188.706 96.2261C186.632 96.2261 185.225 97.109 184.485 98.875V112H181.323V93.5088H184.399L184.451 95.645C185.487 93.993 186.957 93.167 188.86 93.167C189.475 93.167 189.942 93.2467 190.261 93.4062V96.3457ZM192.004 102.583C192.004 100.772 192.358 99.1427 193.064 97.6958C193.782 96.2489 194.773 95.1323 196.038 94.3462C197.314 93.5601 198.766 93.167 200.396 93.167C202.913 93.167 204.947 94.0386 206.497 95.7817C208.057 97.5249 208.838 99.8434 208.838 102.737V102.959C208.838 104.76 208.49 106.377 207.795 107.813C207.112 109.237 206.126 110.348 204.839 111.146C203.563 111.943 202.093 112.342 200.43 112.342C197.923 112.342 195.889 111.47 194.329 109.727C192.779 107.984 192.004 105.677 192.004 102.806V102.583ZM195.183 102.959C195.183 105.01 195.656 106.657 196.602 107.898C197.559 109.14 198.835 109.761 200.43 109.761C202.036 109.761 203.312 109.135 204.258 107.881C205.203 106.617 205.676 104.851 205.676 102.583C205.676 100.556 205.192 98.9149 204.224 97.6616C203.267 96.397 201.991 95.7646 200.396 95.7646C198.835 95.7646 197.576 96.3856 196.619 97.6274C195.662 98.8693 195.183 100.647 195.183 102.959ZM214.358 112V95.9526H211.436V93.5088H214.358V91.6118C214.358 89.6294 214.888 88.097 215.947 87.0146C217.007 85.9323 218.505 85.3911 220.442 85.3911C221.171 85.3911 221.895 85.488 222.612 85.6816L222.441 88.2451C221.906 88.1426 221.336 88.0913 220.732 88.0913C219.707 88.0913 218.915 88.3932 218.357 88.9971C217.799 89.5895 217.52 90.444 217.52 91.5605V93.5088H221.467V95.9526H217.52V112H214.358ZM233.909 96.3457C233.43 96.266 232.912 96.2261 232.354 96.2261C230.28 96.2261 228.873 97.109 228.132 98.875V112H224.971V93.5088H228.047L228.098 95.645C229.135 93.993 230.605 93.167 232.507 93.167C233.123 93.167 233.59 93.2467 233.909 93.4062V96.3457ZM235.652 102.583C235.652 100.772 236.005 99.1427 236.711 97.6958C237.429 96.2489 238.42 95.1323 239.685 94.3462C240.961 93.5601 242.414 93.167 244.043 93.167C246.561 93.167 248.595 94.0386 250.144 95.7817C251.705 97.5249 252.485 99.8434 252.485 102.737V102.959C252.485 104.76 252.138 106.377 251.443 107.813C250.759 109.237 249.774 110.348 248.486 111.146C247.21 111.943 245.741 112.342 244.077 112.342C241.571 112.342 239.537 111.47 237.976 109.727C236.427 107.984 235.652 105.677 235.652 102.806V102.583ZM238.831 102.959C238.831 105.01 239.303 106.657 240.249 107.898C241.206 109.14 242.482 109.761 244.077 109.761C245.684 109.761 246.96 109.135 247.905 107.881C248.851 106.617 249.324 104.851 249.324 102.583C249.324 100.556 248.84 98.9149 247.871 97.6616C246.914 96.397 245.638 95.7646 244.043 95.7646C242.482 95.7646 241.223 96.3856 240.266 97.6274C239.309 98.8693 238.831 100.647 238.831 102.959ZM259.441 93.5088L259.543 95.833C260.956 94.0557 262.802 93.167 265.081 93.167C268.988 93.167 270.959 95.3716 270.994 99.7808V112H267.832V99.7637C267.821 98.4307 267.513 97.4451 266.909 96.8071C266.317 96.1691 265.388 95.8501 264.124 95.8501C263.098 95.8501 262.198 96.1235 261.423 96.6704C260.649 97.2173 260.045 97.9351 259.612 98.8237V112H256.45V93.5088H259.441ZM280.051 89.0312V93.5088H283.503V95.9526H280.051V107.42C280.051 108.16 280.205 108.719 280.513 109.095C280.82 109.459 281.344 109.642 282.085 109.642C282.45 109.642 282.951 109.573 283.589 109.437V112C282.757 112.228 281.948 112.342 281.162 112.342C279.749 112.342 278.684 111.915 277.966 111.06C277.249 110.206 276.89 108.992 276.89 107.42V95.9526H273.523V93.5088H276.89V89.0312H280.051ZM294.885 112.342C292.379 112.342 290.339 111.521 288.767 109.881C287.195 108.229 286.409 106.024 286.409 103.267V102.686C286.409 100.852 286.756 99.2168 287.451 97.7812C288.158 96.3343 289.137 95.2064 290.391 94.3975C291.655 93.5771 293.022 93.167 294.492 93.167C296.896 93.167 298.765 93.9588 300.098 95.5425C301.431 97.1261 302.097 99.3934 302.097 102.344V103.66H289.57C289.616 105.483 290.146 106.958 291.16 108.086C292.185 109.203 293.484 109.761 295.056 109.761C296.173 109.761 297.118 109.533 297.893 109.078C298.668 108.622 299.346 108.018 299.927 107.266L301.858 108.77C300.308 111.151 297.984 112.342 294.885 112.342ZM294.492 95.7646C293.216 95.7646 292.145 96.2318 291.279 97.166C290.413 98.0889 289.878 99.3877 289.673 101.062H298.936V100.823C298.844 99.2168 298.411 97.9749 297.637 97.0977C296.862 96.209 295.814 95.7646 294.492 95.7646ZM308.762 93.5088L308.865 95.833C310.278 94.0557 312.123 93.167 314.402 93.167C318.31 93.167 320.281 95.3716 320.315 99.7808V112H317.153V99.7637C317.142 98.4307 316.834 97.4451 316.23 96.8071C315.638 96.1691 314.709 95.8501 313.445 95.8501C312.419 95.8501 311.519 96.1235 310.745 96.6704C309.97 97.2173 309.366 97.9351 308.933 98.8237V112H305.771V93.5088H308.762ZM324.314 102.601C324.314 99.7637 324.986 97.485 326.331 95.7646C327.675 94.0329 329.435 93.167 331.611 93.167C333.776 93.167 335.491 93.9076 336.755 95.3887V85.75H339.917V112H337.012L336.858 110.018C335.593 111.567 333.833 112.342 331.577 112.342C329.435 112.342 327.686 111.465 326.331 109.71C324.986 107.955 324.314 105.665 324.314 102.84V102.601ZM327.476 102.959C327.476 105.056 327.909 106.696 328.774 107.881C329.64 109.066 330.837 109.659 332.363 109.659C334.368 109.659 335.833 108.759 336.755 106.958V98.4648C335.81 96.7217 334.357 95.8501 332.397 95.8501C330.848 95.8501 329.64 96.4482 328.774 97.6445C327.909 98.8408 327.476 100.612 327.476 102.959Z" fill="black"/>
</svg>
