<svg width="353" height="121" viewBox="0 0 353 121" fill="none" xmlns="http://www.w3.org/2000/svg">
<path d="M69.7841 40.0984C73.182 40.0984 75.9365 37.3439 75.9365 33.946C75.9365 30.5482 73.182 27.7936 69.7841 27.7936C66.3862 27.7936 63.6317 30.5482 63.6317 33.946C63.6317 37.3439 66.3862 40.0984 69.7841 40.0984Z" fill="#61DAFB"/>
<path d="M93.1524 23.8C91.9651 23.3682 90.7238 22.9365 89.4286 22.5587C89.7524 21.2635 90.0222 19.9682 90.2381 18.727C91.3714 11.6032 90.1302 6.58412 86.6762 4.64126C85.6508 4.04761 84.5175 3.77777 83.2222 3.77777C79.4444 3.77777 74.6413 6.58412 69.7841 11.2794C64.927 6.58412 60.1238 3.77777 56.346 3.77777C55.0508 3.77777 53.9175 4.04761 52.8921 4.64126C49.4381 6.63809 48.1968 11.6571 49.3302 18.727C49.546 19.9682 49.8159 21.2635 50.1397 22.5587C48.8444 22.9365 47.6032 23.3143 46.4159 23.8C39.6698 26.3905 36 29.9524 36 33.946C36 37.9397 39.7238 41.5016 46.4159 44.0921C47.6032 44.5238 48.8444 44.9556 50.1397 45.3333C49.8159 46.6286 49.546 47.9238 49.3302 49.1651C48.1968 56.2889 49.4381 61.3079 52.8921 63.2508C53.9175 63.8444 55.0508 64.1143 56.346 64.1143C60.1778 64.1143 64.981 61.3079 69.7841 56.6127C74.6413 61.3079 79.4444 64.1143 83.2222 64.1143C84.5175 64.1143 85.6508 63.8444 86.6762 63.2508C90.1302 61.254 91.3714 56.2349 90.2381 49.1651C90.0222 47.9238 89.7524 46.6286 89.4286 45.3333C90.7238 44.9556 91.9651 44.5778 93.1524 44.0921C99.8984 41.5016 103.568 37.9397 103.568 33.946C103.568 29.9524 99.8984 26.3905 93.1524 23.8ZM85.1651 7.33968C87.3778 8.63491 88.1333 12.6286 87.2159 18.2952C87.054 19.4286 86.7841 20.6159 86.4603 21.8571C83.654 21.2095 80.6857 20.7778 77.5556 20.5079C75.7206 17.9175 73.8317 15.5968 71.9429 13.4921C75.9365 9.55237 79.9841 6.85396 83.2762 6.85396C83.9778 6.85396 84.6254 7.01587 85.1651 7.33968ZM79.1206 39.3429C78.1492 41.0698 77.0159 42.7968 75.8286 44.5238C73.8317 44.6857 71.8349 44.7397 69.7841 44.7397C67.6794 44.7397 65.6825 44.6857 63.7397 44.5238C62.5524 42.7968 61.473 41.0698 60.5016 39.3429C59.4762 37.5619 58.5048 35.727 57.6413 33.946C58.5048 32.1651 59.4762 30.3302 60.5016 28.5492C61.473 26.8222 62.6063 25.0952 63.7937 23.3682C65.7905 23.2063 67.7873 23.1524 69.8381 23.1524C71.9429 23.1524 73.9397 23.2063 75.8825 23.3682C77.0698 25.0952 78.1492 26.8222 79.1206 28.5492C80.146 30.3302 81.1175 32.1651 81.981 33.946C81.0635 35.727 80.146 37.5079 79.1206 39.3429ZM83.6 37.5619C84.4095 39.4508 85.0571 41.2857 85.6508 43.1206C83.8159 43.5524 81.873 43.8762 79.8222 44.146C80.4698 43.1206 81.1714 42.0413 81.7651 40.9079C82.4127 39.7746 83.0064 38.6413 83.6 37.5619ZM69.7841 52.1873C68.4889 50.7841 67.2476 49.273 66.0603 47.7079C67.3016 47.7619 68.5429 47.8159 69.7841 47.8159C71.0254 47.8159 72.2667 47.7619 73.5079 47.7079C72.3206 49.273 71.0794 50.7841 69.7841 52.1873ZM59.746 44.0921C57.6952 43.8222 55.7524 43.4984 53.9175 43.0667C54.5111 41.2857 55.1587 39.3968 55.9683 37.5079C56.5619 38.5873 57.1556 39.7206 57.8032 40.8C58.4508 41.9873 59.0984 43.0127 59.746 44.0921ZM55.9683 30.3302C55.1587 28.4413 54.5111 26.6063 53.9175 24.7714C55.7524 24.3397 57.6952 24.0159 59.746 23.746C59.0984 24.7714 58.3968 25.8508 57.8032 26.9841C57.1556 28.1175 56.5619 29.2508 55.9683 30.3302ZM69.7841 15.7048C71.0794 17.1079 72.3206 18.619 73.5079 20.1841C72.2667 20.1302 71.0254 20.0762 69.7841 20.0762C68.5429 20.0762 67.3016 20.1302 66.0603 20.1841C67.2476 18.619 68.4889 17.1079 69.7841 15.7048ZM81.7651 27.0381L79.8222 23.8C81.873 24.0698 83.8159 24.3936 85.6508 24.8254C85.0571 26.6063 84.4095 28.4952 83.6 30.3841C83.0064 29.2508 82.4127 28.1175 81.7651 27.0381ZM52.3524 18.2952C51.4349 12.6286 52.1905 8.63491 54.4032 7.33968C54.9429 7.01587 55.5905 6.85396 56.2921 6.85396C59.5302 6.85396 63.5778 9.49841 67.6254 13.4921C65.7365 15.5429 63.8476 17.9175 62.0127 20.5079C58.8825 20.7778 55.9143 21.2635 53.1079 21.8571C52.7841 20.6159 52.5683 19.4286 52.3524 18.2952ZM39.0222 33.946C39.0222 31.4095 42.0984 28.7111 47.4952 26.7143C48.5746 26.2825 49.7619 25.9048 50.9492 25.5809C51.8127 28.2794 52.8921 31.1397 54.1873 34C52.8921 36.8603 51.7587 39.6667 50.9492 42.3651C43.5016 40.2063 39.0222 36.9683 39.0222 33.946ZM54.4032 60.5524C52.1905 59.2571 51.4349 55.2635 52.3524 49.5968C52.5143 48.4635 52.7841 47.2762 53.1079 46.0349C55.9143 46.6825 58.8825 47.1143 62.0127 47.3841C63.8476 49.9746 65.7365 52.2952 67.6254 54.4C63.6317 58.3397 59.5841 61.0381 56.2921 61.0381C55.5905 61.0381 54.9429 60.8762 54.4032 60.5524ZM87.2159 49.5968C88.1333 55.2635 87.3778 59.2571 85.1651 60.5524C84.6254 60.8762 83.9778 61.0381 83.2762 61.0381C80.0381 61.0381 75.9905 58.3937 71.9429 54.4C73.8317 52.3492 75.7206 49.9746 77.5556 47.3841C80.6857 47.1143 83.654 46.6286 86.4603 46.0349C86.7841 47.2762 87 48.4635 87.2159 49.5968ZM92.073 41.1778C90.9937 41.6095 89.8064 41.9873 88.619 42.3111C87.7556 39.6127 86.6762 36.7524 85.381 33.8921C86.6762 31.0317 87.8095 28.2254 88.619 25.527C96.0667 27.6857 100.546 30.9238 100.546 33.946C100.546 36.4825 97.4159 39.181 92.073 41.1778Z" fill="#61DAFB"/>
<path d="M201.726 52.4032L174.175 68V55.8517L191.315 46.4127L201.726 52.4032ZM203.615 50.6978V18.1063L193.533 23.9349V44.88L203.609 50.6924L203.615 50.6978ZM144.206 52.4032L171.73 67.9892V55.8517L154.584 46.4127L144.206 52.4032ZM142.318 50.6978V18.1063L152.399 23.9349V44.88L142.318 50.6978ZM143.499 15.9962L171.757 0V11.7435L153.651 21.7006L153.505 21.7816L143.499 15.9962ZM202.422 15.9962L174.175 0V11.7435L192.281 21.6952L192.427 21.7762L202.433 15.9962H202.422Z" fill="#8ED6FB"/>
<path d="M171.757 53.0886L154.817 43.7683V25.3219L171.757 35.0794V53.0886ZM174.175 53.0886L191.116 43.7791V25.3219L174.175 35.0794V53.0886ZM155.966 23.2064L172.966 13.8483L189.966 23.2064L172.966 33.007L155.966 23.2064Z" fill="#1C78C0"/>
<path d="M306.362 2.15875H242.717C242.707 2.15875 242.698 2.16711 242.698 2.17741V65.8226C242.698 65.8329 242.707 65.8413 242.717 65.8413H306.362C306.373 65.8413 306.381 65.8329 306.381 65.8226V2.17741C306.381 2.16711 306.373 2.15875 306.362 2.15875Z" fill="#F7DF1E"/>
<path d="M282.998 48.1793C284.241 50.2938 285.983 51.7864 288.843 51.7864C291.331 51.7864 292.948 50.5426 292.948 48.8012C292.948 46.8112 291.331 46.0649 288.595 44.8211L287.102 44.1992C282.749 42.3335 279.888 40.0946 279.888 35.2438C279.888 30.7661 283.246 27.2835 288.595 27.2835C292.45 27.2835 295.187 28.6517 297.053 32.1343L292.45 35.1194C291.455 33.2537 290.336 32.5075 288.595 32.5075C286.853 32.5075 285.734 33.6269 285.734 35.1194C285.734 36.8608 286.853 37.607 289.465 38.7265L290.958 39.3484C296.058 41.5872 298.918 43.7017 298.918 48.8012C298.918 54.1496 294.689 57.1347 288.968 57.1347C283.371 57.1347 279.764 54.5227 278.022 51.0401L282.998 48.1793ZM261.853 48.6769C262.848 50.2938 263.594 51.7864 265.709 51.7864C267.699 51.7864 268.943 51.0401 268.943 48.055V27.4079H274.913V47.8062C274.913 54.0252 271.306 56.7616 265.958 56.7616C261.107 56.7616 258.37 54.274 257.002 51.2888L261.853 48.6769Z" fill="black"/>
<path d="M21.1914 104.104C20.8838 106.736 19.9097 108.77 18.269 110.206C16.6398 111.63 14.4694 112.342 11.7578 112.342C8.81836 112.342 6.45996 111.288 4.68262 109.18C2.91667 107.072 2.03369 104.253 2.03369 100.721V98.3281C2.03369 96.0153 2.44385 93.9816 3.26416 92.2271C4.09587 90.4725 5.26937 89.1281 6.78467 88.1938C8.29997 87.2482 10.0545 86.7754 12.0483 86.7754C14.6916 86.7754 16.8107 87.516 18.4058 88.9971C20.0008 90.4668 20.9294 92.5062 21.1914 95.1152H17.8931C17.6082 93.1328 16.9873 91.6973 16.0303 90.8086C15.0846 89.9199 13.7573 89.4756 12.0483 89.4756C9.95199 89.4756 8.30566 90.2503 7.10938 91.7998C5.92448 93.3493 5.33203 95.5539 5.33203 98.4136V100.823C5.33203 103.523 5.896 105.671 7.02393 107.266C8.15186 108.861 9.72982 109.659 11.7578 109.659C13.5807 109.659 14.9764 109.249 15.9448 108.428C16.9246 107.597 17.5741 106.155 17.8931 104.104H21.1914ZM24.353 102.583C24.353 100.772 24.7062 99.1427 25.4126 97.6958C26.1304 96.2489 27.1216 95.1323 28.3862 94.3462C29.6623 93.5601 31.1149 93.167 32.7441 93.167C35.262 93.167 37.2957 94.0386 38.8452 95.7817C40.4061 97.5249 41.1865 99.8434 41.1865 102.737V102.959C41.1865 104.76 40.839 106.377 40.144 107.813C39.4604 109.237 38.4749 110.348 37.1875 111.146C35.9115 111.943 34.4417 112.342 32.7783 112.342C30.2718 112.342 28.2381 111.47 26.6772 109.727C25.1278 107.984 24.353 105.677 24.353 102.806V102.583ZM27.5317 102.959C27.5317 105.01 28.0046 106.657 28.9502 107.898C29.9072 109.14 31.1833 109.761 32.7783 109.761C34.3848 109.761 35.6608 109.135 36.6064 107.881C37.5521 106.617 38.0249 104.851 38.0249 102.583C38.0249 100.556 37.5407 98.9149 36.5723 97.6616C35.6152 96.397 34.3392 95.7646 32.7441 95.7646C31.1833 95.7646 29.9243 96.3856 28.9673 97.6274C28.0103 98.8693 27.5317 100.647 27.5317 102.959ZM48.1421 93.5088L48.2446 95.833C49.6574 94.0557 51.5031 93.167 53.7817 93.167C57.6896 93.167 59.6606 95.3716 59.6948 99.7808V112H56.5332V99.7637C56.5218 98.4307 56.2142 97.4451 55.6104 96.8071C55.0179 96.1691 54.0894 95.8501 52.8247 95.8501C51.7993 95.8501 50.8993 96.1235 50.1245 96.6704C49.3498 97.2173 48.7459 97.9351 48.313 98.8237V112H45.1514V93.5088H48.1421ZM68.7524 89.0312V93.5088H72.2046V95.9526H68.7524V107.42C68.7524 108.16 68.9062 108.719 69.2139 109.095C69.5215 109.459 70.0456 109.642 70.7861 109.642C71.1507 109.642 71.652 109.573 72.29 109.437V112C71.4583 112.228 70.6494 112.342 69.8633 112.342C68.4505 112.342 67.3853 111.915 66.6675 111.06C65.9497 110.206 65.5908 108.992 65.5908 107.42V95.9526H62.2241V93.5088H65.5908V89.0312H68.7524ZM83.5864 112.342C81.0799 112.342 79.0405 111.521 77.4683 109.881C75.896 108.229 75.1099 106.024 75.1099 103.267V102.686C75.1099 100.852 75.4574 99.2168 76.1523 97.7812C76.8587 96.3343 77.8385 95.2064 79.0918 94.3975C80.3564 93.5771 81.7236 93.167 83.1934 93.167C85.5973 93.167 87.4658 93.9588 88.7988 95.5425C90.1318 97.1261 90.7983 99.3934 90.7983 102.344V103.66H78.2715C78.3171 105.483 78.8468 106.958 79.8608 108.086C80.8862 109.203 82.1851 109.761 83.7573 109.761C84.8739 109.761 85.8195 109.533 86.5942 109.078C87.369 108.622 88.0469 108.018 88.6279 107.266L90.5591 108.77C89.0096 111.151 86.6854 112.342 83.5864 112.342ZM83.1934 95.7646C81.9173 95.7646 80.8464 96.2318 79.9805 97.166C79.1146 98.0889 78.5791 99.3877 78.374 101.062H87.6367V100.823C87.5456 99.2168 87.1126 97.9749 86.3379 97.0977C85.5632 96.209 84.515 95.7646 83.1934 95.7646ZM97.4634 93.5088L97.5659 95.833C98.9787 94.0557 100.824 93.167 103.103 93.167C107.011 93.167 108.982 95.3716 109.016 99.7808V112H105.854V99.7637C105.843 98.4307 105.535 97.4451 104.932 96.8071C104.339 96.1691 103.411 95.8501 102.146 95.8501C101.121 95.8501 100.221 96.1235 99.4458 96.6704C98.6711 97.2173 98.0672 97.9351 97.6343 98.8237V112H94.4727V93.5088H97.4634ZM118.074 89.0312V93.5088H121.526V95.9526H118.074V107.42C118.074 108.16 118.228 108.719 118.535 109.095C118.843 109.459 119.367 109.642 120.107 109.642C120.472 109.642 120.973 109.573 121.611 109.437V112C120.78 112.228 119.971 112.342 119.185 112.342C117.772 112.342 116.707 111.915 115.989 111.06C115.271 110.206 114.912 108.992 114.912 107.42V95.9526H111.545V93.5088H114.912V89.0312H118.074ZM136.89 93.5088L136.975 95.5596C138.331 93.9645 140.16 93.167 142.461 93.167C145.047 93.167 146.807 94.1582 147.742 96.1406C148.357 95.252 149.154 94.5342 150.134 93.9873C151.125 93.4404 152.293 93.167 153.638 93.167C157.694 93.167 159.756 95.3146 159.824 99.6099V112H156.663V99.7979C156.663 98.4762 156.361 97.4907 155.757 96.8413C155.153 96.1805 154.139 95.8501 152.715 95.8501C151.541 95.8501 150.567 96.2033 149.792 96.9097C149.018 97.6047 148.568 98.5446 148.442 99.7295V112H145.264V99.8833C145.264 97.1945 143.948 95.8501 141.316 95.8501C139.242 95.8501 137.824 96.7331 137.061 98.499V112H133.899V93.5088H136.89ZM168.044 112H164.883V93.5088H168.044V112ZM164.626 88.604C164.626 88.0913 164.78 87.6584 165.088 87.3052C165.407 86.952 165.874 86.7754 166.489 86.7754C167.104 86.7754 167.572 86.952 167.891 87.3052C168.21 87.6584 168.369 88.0913 168.369 88.604C168.369 89.1167 168.21 89.5439 167.891 89.8857C167.572 90.2275 167.104 90.3984 166.489 90.3984C165.874 90.3984 165.407 90.2275 165.088 89.8857C164.78 89.5439 164.626 89.1167 164.626 88.604ZM180.537 109.761C181.665 109.761 182.651 109.419 183.494 108.736C184.337 108.052 184.804 107.198 184.895 106.172H187.886C187.829 107.232 187.464 108.24 186.792 109.197C186.12 110.154 185.22 110.918 184.092 111.487C182.975 112.057 181.79 112.342 180.537 112.342C178.019 112.342 176.014 111.504 174.521 109.83C173.04 108.143 172.3 105.842 172.3 102.925V102.396C172.3 100.595 172.63 98.9946 173.291 97.5933C173.952 96.1919 174.897 95.1038 176.128 94.3291C177.37 93.5544 178.834 93.167 180.52 93.167C182.594 93.167 184.314 93.7879 185.681 95.0298C187.06 96.2716 187.795 97.8838 187.886 99.8662H184.895C184.804 98.6699 184.348 97.6901 183.528 96.9268C182.719 96.152 181.716 95.7646 180.52 95.7646C178.914 95.7646 177.666 96.3457 176.777 97.5078C175.9 98.6585 175.461 100.328 175.461 102.515V103.113C175.461 105.244 175.9 106.884 176.777 108.035C177.655 109.186 178.908 109.761 180.537 109.761ZM200.378 96.3457C199.9 96.266 199.382 96.2261 198.823 96.2261C196.75 96.2261 195.343 97.109 194.602 98.875V112H191.44V93.5088H194.517L194.568 95.645C195.605 93.993 197.074 93.167 198.977 93.167C199.592 93.167 200.059 93.2467 200.378 93.4062V96.3457ZM202.122 102.583C202.122 100.772 202.475 99.1427 203.181 97.6958C203.899 96.2489 204.89 95.1323 206.155 94.3462C207.431 93.5601 208.883 93.167 210.513 93.167C213.031 93.167 215.064 94.0386 216.614 95.7817C218.175 97.5249 218.955 99.8434 218.955 102.737V102.959C218.955 104.76 218.608 106.377 217.913 107.813C217.229 109.237 216.243 110.348 214.956 111.146C213.68 111.943 212.21 112.342 210.547 112.342C208.04 112.342 206.007 111.47 204.446 109.727C202.896 107.984 202.122 105.677 202.122 102.806V102.583ZM205.3 102.959C205.3 105.01 205.773 106.657 206.719 107.898C207.676 109.14 208.952 109.761 210.547 109.761C212.153 109.761 213.429 109.135 214.375 107.881C215.321 106.617 215.793 104.851 215.793 102.583C215.793 100.556 215.309 98.9149 214.341 97.6616C213.384 96.397 212.108 95.7646 210.513 95.7646C208.952 95.7646 207.693 96.3856 206.736 97.6274C205.779 98.8693 205.3 100.647 205.3 102.959ZM224.475 112V95.9526H221.553V93.5088H224.475V91.6118C224.475 89.6294 225.005 88.097 226.064 87.0146C227.124 85.9323 228.622 85.3911 230.559 85.3911C231.288 85.3911 232.012 85.488 232.729 85.6816L232.559 88.2451C232.023 88.1426 231.453 88.0913 230.85 88.0913C229.824 88.0913 229.032 88.3932 228.474 88.9971C227.916 89.5895 227.637 90.444 227.637 91.5605V93.5088H231.584V95.9526H227.637V112H224.475ZM244.026 96.3457C243.547 96.266 243.029 96.2261 242.471 96.2261C240.397 96.2261 238.99 97.109 238.25 98.875V112H235.088V93.5088H238.164L238.215 95.645C239.252 93.993 240.722 93.167 242.625 93.167C243.24 93.167 243.707 93.2467 244.026 93.4062V96.3457ZM245.769 102.583C245.769 100.772 246.122 99.1427 246.829 97.6958C247.546 96.2489 248.538 95.1323 249.802 94.3462C251.078 93.5601 252.531 93.167 254.16 93.167C256.678 93.167 258.712 94.0386 260.261 95.7817C261.822 97.5249 262.603 99.8434 262.603 102.737V102.959C262.603 104.76 262.255 106.377 261.56 107.813C260.876 109.237 259.891 110.348 258.604 111.146C257.327 111.943 255.858 112.342 254.194 112.342C251.688 112.342 249.654 111.47 248.093 109.727C246.544 107.984 245.769 105.677 245.769 102.806V102.583ZM248.948 102.959C248.948 105.01 249.421 106.657 250.366 107.898C251.323 109.14 252.599 109.761 254.194 109.761C255.801 109.761 257.077 109.135 258.022 107.881C258.968 106.617 259.441 104.851 259.441 102.583C259.441 100.556 258.957 98.9149 257.988 97.6616C257.031 96.397 255.755 95.7646 254.16 95.7646C252.599 95.7646 251.34 96.3856 250.383 97.6274C249.426 98.8693 248.948 100.647 248.948 102.959ZM269.558 93.5088L269.661 95.833C271.073 94.0557 272.919 93.167 275.198 93.167C279.106 93.167 281.077 95.3716 281.111 99.7808V112H277.949V99.7637C277.938 98.4307 277.63 97.4451 277.026 96.8071C276.434 96.1691 275.505 95.8501 274.241 95.8501C273.215 95.8501 272.315 96.1235 271.541 96.6704C270.766 97.2173 270.162 97.9351 269.729 98.8237V112H266.567V93.5088H269.558ZM290.168 89.0312V93.5088H293.621V95.9526H290.168V107.42C290.168 108.16 290.322 108.719 290.63 109.095C290.938 109.459 291.462 109.642 292.202 109.642C292.567 109.642 293.068 109.573 293.706 109.437V112C292.874 112.228 292.065 112.342 291.279 112.342C289.867 112.342 288.801 111.915 288.083 111.06C287.366 110.206 287.007 108.992 287.007 107.42V95.9526H283.64V93.5088H287.007V89.0312H290.168ZM305.002 112.342C302.496 112.342 300.457 111.521 298.884 109.881C297.312 108.229 296.526 106.024 296.526 103.267V102.686C296.526 100.852 296.873 99.2168 297.568 97.7812C298.275 96.3343 299.255 95.2064 300.508 94.3975C301.772 93.5771 303.14 93.167 304.609 93.167C307.013 93.167 308.882 93.9588 310.215 95.5425C311.548 97.1261 312.214 99.3934 312.214 102.344V103.66H299.688C299.733 105.483 300.263 106.958 301.277 108.086C302.302 109.203 303.601 109.761 305.173 109.761C306.29 109.761 307.236 109.533 308.01 109.078C308.785 108.622 309.463 108.018 310.044 107.266L311.975 108.77C310.426 111.151 308.101 112.342 305.002 112.342ZM304.609 95.7646C303.333 95.7646 302.262 96.2318 301.396 97.166C300.531 98.0889 299.995 99.3877 299.79 101.062H309.053V100.823C308.962 99.2168 308.529 97.9749 307.754 97.0977C306.979 96.209 305.931 95.7646 304.609 95.7646ZM318.879 93.5088L318.982 95.833C320.395 94.0557 322.24 93.167 324.519 93.167C328.427 93.167 330.398 95.3716 330.432 99.7808V112H327.271V99.7637C327.259 98.4307 326.951 97.4451 326.348 96.8071C325.755 96.1691 324.827 95.8501 323.562 95.8501C322.537 95.8501 321.637 96.1235 320.862 96.6704C320.087 97.2173 319.483 97.9351 319.05 98.8237V112H315.889V93.5088H318.879ZM334.431 102.601C334.431 99.7637 335.103 97.485 336.448 95.7646C337.792 94.0329 339.552 93.167 341.729 93.167C343.893 93.167 345.608 93.9076 346.873 95.3887V85.75H350.034V112H347.129L346.975 110.018C345.71 111.567 343.95 112.342 341.694 112.342C339.552 112.342 337.804 111.465 336.448 109.71C335.103 107.955 334.431 105.665 334.431 102.84V102.601ZM337.593 102.959C337.593 105.056 338.026 106.696 338.892 107.881C339.757 109.066 340.954 109.659 342.48 109.659C344.486 109.659 345.95 108.759 346.873 106.958V98.4648C345.927 96.7217 344.474 95.8501 342.515 95.8501C340.965 95.8501 339.757 96.4482 338.892 97.6445C338.026 98.8408 337.593 100.612 337.593 102.959Z" fill="black"/>
</svg>
