<svg width="340" height="121" viewBox="0 0 340 121" fill="none" xmlns="http://www.w3.org/2000/svg">
<path d="M69.7841 40.0984C73.182 40.0984 75.9365 37.3439 75.9365 33.946C75.9365 30.5482 73.182 27.7936 69.7841 27.7936C66.3862 27.7936 63.6317 30.5482 63.6317 33.946C63.6317 37.3439 66.3862 40.0984 69.7841 40.0984Z" fill="#61DAFB"/>
<path d="M93.1524 23.8C91.9651 23.3682 90.7238 22.9365 89.4286 22.5587C89.7524 21.2635 90.0222 19.9682 90.2381 18.727C91.3714 11.6032 90.1302 6.58412 86.6762 4.64126C85.6508 4.04761 84.5175 3.77777 83.2222 3.77777C79.4444 3.77777 74.6413 6.58412 69.7841 11.2794C64.927 6.58412 60.1238 3.77777 56.346 3.77777C55.0508 3.77777 53.9175 4.04761 52.8921 4.64126C49.4381 6.63809 48.1968 11.6571 49.3302 18.727C49.546 19.9682 49.8159 21.2635 50.1397 22.5587C48.8444 22.9365 47.6032 23.3143 46.4159 23.8C39.6698 26.3905 36 29.9524 36 33.946C36 37.9397 39.7238 41.5016 46.4159 44.0921C47.6032 44.5238 48.8444 44.9556 50.1397 45.3333C49.8159 46.6286 49.546 47.9238 49.3302 49.1651C48.1968 56.2889 49.4381 61.3079 52.8921 63.2508C53.9175 63.8444 55.0508 64.1143 56.346 64.1143C60.1778 64.1143 64.981 61.3079 69.7841 56.6127C74.6413 61.3079 79.4444 64.1143 83.2222 64.1143C84.5175 64.1143 85.6508 63.8444 86.6762 63.2508C90.1302 61.254 91.3714 56.2349 90.2381 49.1651C90.0222 47.9238 89.7524 46.6286 89.4286 45.3333C90.7238 44.9556 91.9651 44.5778 93.1524 44.0921C99.8984 41.5016 103.568 37.9397 103.568 33.946C103.568 29.9524 99.8984 26.3905 93.1524 23.8ZM85.1651 7.33968C87.3778 8.63491 88.1333 12.6286 87.2159 18.2952C87.054 19.4286 86.7841 20.6159 86.4603 21.8571C83.654 21.2095 80.6857 20.7778 77.5556 20.5079C75.7206 17.9175 73.8317 15.5968 71.9429 13.4921C75.9365 9.55237 79.9841 6.85396 83.2762 6.85396C83.9778 6.85396 84.6254 7.01587 85.1651 7.33968ZM79.1206 39.3429C78.1492 41.0698 77.0159 42.7968 75.8286 44.5238C73.8317 44.6857 71.8349 44.7397 69.7841 44.7397C67.6794 44.7397 65.6825 44.6857 63.7397 44.5238C62.5524 42.7968 61.473 41.0698 60.5016 39.3429C59.4762 37.5619 58.5048 35.727 57.6413 33.946C58.5048 32.1651 59.4762 30.3302 60.5016 28.5492C61.473 26.8222 62.6063 25.0952 63.7937 23.3682C65.7905 23.2063 67.7873 23.1524 69.8381 23.1524C71.9429 23.1524 73.9397 23.2063 75.8825 23.3682C77.0698 25.0952 78.1492 26.8222 79.1206 28.5492C80.146 30.3302 81.1175 32.1651 81.981 33.946C81.0635 35.727 80.146 37.5079 79.1206 39.3429ZM83.6 37.5619C84.4095 39.4508 85.0571 41.2857 85.6508 43.1206C83.8159 43.5524 81.873 43.8762 79.8222 44.146C80.4698 43.1206 81.1714 42.0413 81.7651 40.9079C82.4127 39.7746 83.0064 38.6413 83.6 37.5619ZM69.7841 52.1873C68.4889 50.7841 67.2476 49.273 66.0603 47.7079C67.3016 47.7619 68.5429 47.8159 69.7841 47.8159C71.0254 47.8159 72.2667 47.7619 73.5079 47.7079C72.3206 49.273 71.0794 50.7841 69.7841 52.1873ZM59.746 44.0921C57.6952 43.8222 55.7524 43.4984 53.9175 43.0667C54.5111 41.2857 55.1587 39.3968 55.9683 37.5079C56.5619 38.5873 57.1556 39.7206 57.8032 40.8C58.4508 41.9873 59.0984 43.0127 59.746 44.0921ZM55.9683 30.3302C55.1587 28.4413 54.5111 26.6063 53.9175 24.7714C55.7524 24.3397 57.6952 24.0159 59.746 23.746C59.0984 24.7714 58.3968 25.8508 57.8032 26.9841C57.1556 28.1175 56.5619 29.2508 55.9683 30.3302ZM69.7841 15.7048C71.0794 17.1079 72.3206 18.619 73.5079 20.1841C72.2667 20.1302 71.0254 20.0762 69.7841 20.0762C68.5429 20.0762 67.3016 20.1302 66.0603 20.1841C67.2476 18.619 68.4889 17.1079 69.7841 15.7048ZM81.7651 27.0381L79.8222 23.8C81.873 24.0698 83.8159 24.3936 85.6508 24.8254C85.0571 26.6063 84.4095 28.4952 83.6 30.3841C83.0064 29.2508 82.4127 28.1175 81.7651 27.0381ZM52.3524 18.2952C51.4349 12.6286 52.1905 8.63491 54.4032 7.33968C54.9429 7.01587 55.5905 6.85396 56.2921 6.85396C59.5302 6.85396 63.5778 9.49841 67.6254 13.4921C65.7365 15.5429 63.8476 17.9175 62.0127 20.5079C58.8825 20.7778 55.9143 21.2635 53.1079 21.8571C52.7841 20.6159 52.5683 19.4286 52.3524 18.2952ZM39.0222 33.946C39.0222 31.4095 42.0984 28.7111 47.4952 26.7143C48.5746 26.2825 49.7619 25.9048 50.9492 25.5809C51.8127 28.2794 52.8921 31.1397 54.1873 34C52.8921 36.8603 51.7587 39.6667 50.9492 42.3651C43.5016 40.2063 39.0222 36.9683 39.0222 33.946ZM54.4032 60.5524C52.1905 59.2571 51.4349 55.2635 52.3524 49.5968C52.5143 48.4635 52.7841 47.2762 53.1079 46.0349C55.9143 46.6825 58.8825 47.1143 62.0127 47.3841C63.8476 49.9746 65.7365 52.2952 67.6254 54.4C63.6317 58.3397 59.5841 61.0381 56.2921 61.0381C55.5905 61.0381 54.9429 60.8762 54.4032 60.5524ZM87.2159 49.5968C88.1333 55.2635 87.3778 59.2571 85.1651 60.5524C84.6254 60.8762 83.9778 61.0381 83.2762 61.0381C80.0381 61.0381 75.9905 58.3937 71.9429 54.4C73.8317 52.3492 75.7206 49.9746 77.5556 47.3841C80.6857 47.1143 83.654 46.6286 86.4603 46.0349C86.7841 47.2762 87 48.4635 87.2159 49.5968ZM92.073 41.1778C90.9937 41.6095 89.8064 41.9873 88.619 42.3111C87.7556 39.6127 86.6762 36.7524 85.381 33.8921C86.6762 31.0317 87.8095 28.2254 88.619 25.527C96.0667 27.6857 100.546 30.9238 100.546 33.946C100.546 36.4825 97.4159 39.181 92.073 41.1778Z" fill="#61DAFB"/>
<path d="M201.726 52.4032L174.175 68V55.8517L191.315 46.4127L201.726 52.4032ZM203.615 50.6978V18.1063L193.533 23.9349V44.88L203.609 50.6924L203.615 50.6978ZM144.206 52.4032L171.73 67.9892V55.8517L154.584 46.4127L144.206 52.4032ZM142.318 50.6978V18.1063L152.399 23.9349V44.88L142.318 50.6978ZM143.499 15.9962L171.757 0V11.7435L153.651 21.7006L153.505 21.7816L143.499 15.9962ZM202.422 15.9962L174.175 0V11.7435L192.281 21.6952L192.427 21.7762L202.433 15.9962H202.422Z" fill="#8ED6FB"/>
<path d="M171.757 53.0886L154.817 43.7683V25.3219L171.757 35.0794V53.0886ZM174.175 53.0886L191.116 43.7791V25.3219L174.175 35.0794V53.0886ZM155.966 23.2064L172.966 13.8483L189.966 23.2064L172.966 33.007L155.966 23.2064Z" fill="#1C78C0"/>
<path d="M306.362 2.15875H242.717C242.707 2.15875 242.698 2.16711 242.698 2.17741V65.8226C242.698 65.8329 242.707 65.8413 242.717 65.8413H306.362C306.373 65.8413 306.381 65.8329 306.381 65.8226V2.17741C306.381 2.16711 306.373 2.15875 306.362 2.15875Z" fill="#F7DF1E"/>
<path d="M282.998 48.1793C284.241 50.2938 285.983 51.7864 288.843 51.7864C291.331 51.7864 292.948 50.5426 292.948 48.8012C292.948 46.8112 291.331 46.0649 288.595 44.8211L287.102 44.1992C282.749 42.3335 279.888 40.0946 279.888 35.2438C279.888 30.7661 283.246 27.2835 288.595 27.2835C292.45 27.2835 295.187 28.6517 297.053 32.1343L292.45 35.1194C291.455 33.2537 290.336 32.5075 288.595 32.5075C286.853 32.5075 285.734 33.6269 285.734 35.1194C285.734 36.8608 286.853 37.607 289.465 38.7265L290.958 39.3484C296.058 41.5872 298.918 43.7017 298.918 48.8012C298.918 54.1496 294.689 57.1347 288.968 57.1347C283.371 57.1347 279.764 54.5227 278.022 51.0401L282.998 48.1793ZM261.853 48.6769C262.848 50.2938 263.594 51.7864 265.709 51.7864C267.699 51.7864 268.943 51.0401 268.943 48.055V27.4079H274.913V47.8062C274.913 54.0252 271.306 56.7616 265.958 56.7616C261.107 56.7616 258.37 54.274 257.002 51.2888L261.853 48.6769Z" fill="black"/>
<path d="M2.88818 112V87.1172H11.0229C13.7231 87.1172 15.7511 87.6755 17.1069 88.792C18.4741 89.9085 19.1577 91.5605 19.1577 93.748C19.1577 94.9102 18.8273 95.9412 18.1665 96.8413C17.5057 97.73 16.6056 98.4193 15.4663 98.9092C16.8107 99.2852 17.8703 100.003 18.645 101.062C19.4312 102.111 19.8242 103.364 19.8242 104.822C19.8242 107.055 19.1007 108.81 17.6538 110.086C16.2069 111.362 14.1618 112 11.5186 112H2.88818ZM6.16943 100.362V109.317H11.5869C13.1136 109.317 14.3156 108.924 15.1929 108.138C16.0815 107.34 16.5259 106.246 16.5259 104.856C16.5259 101.86 14.8966 100.362 11.6382 100.362H6.16943ZM6.16943 97.73H11.1255C12.561 97.73 13.7061 97.3711 14.5605 96.6533C15.4264 95.9355 15.8594 94.9614 15.8594 93.731C15.8594 92.3638 15.4606 91.3726 14.6631 90.7573C13.8656 90.1307 12.6522 89.8174 11.0229 89.8174H6.16943V97.73ZM35.6152 112C35.4329 111.635 35.2848 110.986 35.1709 110.052C33.7012 111.578 31.9466 112.342 29.9072 112.342C28.0843 112.342 26.5861 111.829 25.4126 110.804C24.2505 109.767 23.6694 108.457 23.6694 106.873C23.6694 104.948 24.3986 103.455 25.8569 102.396C27.3267 101.325 29.3888 100.789 32.0435 100.789H35.1196V99.3364C35.1196 98.2313 34.7892 97.354 34.1284 96.7046C33.4676 96.0438 32.4935 95.7134 31.2061 95.7134C30.0781 95.7134 29.1325 95.9982 28.3691 96.5679C27.6058 97.1375 27.2241 97.8268 27.2241 98.6357H24.0454C24.0454 97.7129 24.3701 96.8242 25.0195 95.9697C25.6803 95.1038 26.569 94.4202 27.6855 93.9189C28.8135 93.4176 30.0496 93.167 31.394 93.167C33.5246 93.167 35.1937 93.7025 36.4014 94.7734C37.609 95.833 38.2357 97.297 38.2812 99.1655V107.676C38.2812 109.374 38.4977 110.724 38.9307 111.727V112H35.6152ZM30.3687 109.59C31.3599 109.59 32.2998 109.334 33.1885 108.821C34.0771 108.309 34.7209 107.642 35.1196 106.822V103.028H32.6416C28.7679 103.028 26.8311 104.161 26.8311 106.429C26.8311 107.42 27.1615 108.195 27.8223 108.753C28.4831 109.311 29.3319 109.59 30.3687 109.59ZM46.228 93.5088L46.3306 95.833C47.7433 94.0557 49.589 93.167 51.8677 93.167C55.7756 93.167 57.7466 95.3716 57.7808 99.7808V112H54.6191V99.7637C54.6077 98.4307 54.3001 97.4451 53.6963 96.8071C53.1038 96.1691 52.1753 95.8501 50.9106 95.8501C49.8853 95.8501 48.9852 96.1235 48.2104 96.6704C47.4357 97.2173 46.8319 97.9351 46.3989 98.8237V112H43.2373V93.5088H46.228ZM65.5396 93.5088L65.6421 95.833C67.0549 94.0557 68.9006 93.167 71.1792 93.167C75.0871 93.167 77.0581 95.3716 77.0923 99.7808V112H73.9307V99.7637C73.9193 98.4307 73.6117 97.4451 73.0078 96.8071C72.4154 96.1691 71.4868 95.8501 70.2222 95.8501C69.1968 95.8501 68.2967 96.1235 67.522 96.6704C66.7472 97.2173 66.1434 97.9351 65.7104 98.8237V112H62.5488V93.5088H65.5396ZM89.5337 112.342C87.0272 112.342 84.9878 111.521 83.4155 109.881C81.8433 108.229 81.0571 106.024 81.0571 103.267V102.686C81.0571 100.852 81.4046 99.2168 82.0996 97.7812C82.806 96.3343 83.7858 95.2064 85.0391 94.3975C86.3037 93.5771 87.6709 93.167 89.1406 93.167C91.5446 93.167 93.4131 93.9588 94.7461 95.5425C96.0791 97.1261 96.7456 99.3934 96.7456 102.344V103.66H84.2188C84.2643 105.483 84.7941 106.958 85.8081 108.086C86.8335 109.203 88.1323 109.761 89.7046 109.761C90.8211 109.761 91.7668 109.533 92.5415 109.078C93.3162 108.622 93.9941 108.018 94.5752 107.266L96.5063 108.77C94.9569 111.151 92.6326 112.342 89.5337 112.342ZM89.1406 95.7646C87.8646 95.7646 86.7936 96.2318 85.9277 97.166C85.0618 98.0889 84.5264 99.3877 84.3213 101.062H93.584V100.823C93.4928 99.2168 93.0599 97.9749 92.2852 97.0977C91.5104 96.209 90.4622 95.7646 89.1406 95.7646ZM109.358 96.3457C108.879 96.266 108.361 96.2261 107.803 96.2261C105.729 96.2261 104.322 97.109 103.582 98.875V112H100.42V93.5088H103.496L103.547 95.645C104.584 93.993 106.054 93.167 107.957 93.167C108.572 93.167 109.039 93.2467 109.358 93.4062V96.3457ZM123.936 93.5088L124.021 95.5596C125.377 93.9645 127.205 93.167 129.507 93.167C132.093 93.167 133.853 94.1582 134.788 96.1406C135.403 95.252 136.2 94.5342 137.18 93.9873C138.171 93.4404 139.339 93.167 140.684 93.167C144.74 93.167 146.802 95.3146 146.87 99.6099V112H143.708V99.7979C143.708 98.4762 143.407 97.4907 142.803 96.8413C142.199 96.1805 141.185 95.8501 139.761 95.8501C138.587 95.8501 137.613 96.2033 136.838 96.9097C136.064 97.6047 135.614 98.5446 135.488 99.7295V112H132.31V99.8833C132.31 97.1945 130.994 95.8501 128.362 95.8501C126.288 95.8501 124.87 96.7331 124.106 98.499V112H120.945V93.5088H123.936ZM155.09 112H151.929V93.5088H155.09V112ZM151.672 88.604C151.672 88.0913 151.826 87.6584 152.134 87.3052C152.453 86.952 152.92 86.7754 153.535 86.7754C154.15 86.7754 154.618 86.952 154.937 87.3052C155.256 87.6584 155.415 88.0913 155.415 88.604C155.415 89.1167 155.256 89.5439 154.937 89.8857C154.618 90.2275 154.15 90.3984 153.535 90.3984C152.92 90.3984 152.453 90.2275 152.134 89.8857C151.826 89.5439 151.672 89.1167 151.672 88.604ZM167.583 109.761C168.711 109.761 169.696 109.419 170.54 108.736C171.383 108.052 171.85 107.198 171.941 106.172H174.932C174.875 107.232 174.51 108.24 173.838 109.197C173.166 110.154 172.266 110.918 171.138 111.487C170.021 112.057 168.836 112.342 167.583 112.342C165.065 112.342 163.06 111.504 161.567 109.83C160.086 108.143 159.346 105.842 159.346 102.925V102.396C159.346 100.595 159.676 98.9946 160.337 97.5933C160.998 96.1919 161.943 95.1038 163.174 94.3291C164.416 93.5544 165.88 93.167 167.566 93.167C169.639 93.167 171.36 93.7879 172.727 95.0298C174.106 96.2716 174.84 97.8838 174.932 99.8662H171.941C171.85 98.6699 171.394 97.6901 170.574 96.9268C169.765 96.152 168.762 95.7646 167.566 95.7646C165.959 95.7646 164.712 96.3457 163.823 97.5078C162.946 98.6585 162.507 100.328 162.507 102.515V103.113C162.507 105.244 162.946 106.884 163.823 108.035C164.701 109.186 165.954 109.761 167.583 109.761ZM187.424 96.3457C186.946 96.266 186.427 96.2261 185.869 96.2261C183.796 96.2261 182.389 97.109 181.648 98.875V112H178.486V93.5088H181.562L181.614 95.645C182.651 93.993 184.12 93.167 186.023 93.167C186.638 93.167 187.105 93.2467 187.424 93.4062V96.3457ZM189.167 102.583C189.167 100.772 189.521 99.1427 190.227 97.6958C190.945 96.2489 191.936 95.1323 193.201 94.3462C194.477 93.5601 195.929 93.167 197.559 93.167C200.076 93.167 202.11 94.0386 203.66 95.7817C205.221 97.5249 206.001 99.8434 206.001 102.737V102.959C206.001 104.76 205.653 106.377 204.958 107.813C204.275 109.237 203.289 110.348 202.002 111.146C200.726 111.943 199.256 112.342 197.593 112.342C195.086 112.342 193.053 111.47 191.492 109.727C189.942 107.984 189.167 105.677 189.167 102.806V102.583ZM192.346 102.959C192.346 105.01 192.819 106.657 193.765 107.898C194.722 109.14 195.998 109.761 197.593 109.761C199.199 109.761 200.475 109.135 201.421 107.881C202.367 106.617 202.839 104.851 202.839 102.583C202.839 100.556 202.355 98.9149 201.387 97.6616C200.43 96.397 199.154 95.7646 197.559 95.7646C195.998 95.7646 194.739 96.3856 193.782 97.6274C192.825 98.8693 192.346 100.647 192.346 102.959ZM211.521 112V95.9526H208.599V93.5088H211.521V91.6118C211.521 89.6294 212.051 88.097 213.11 87.0146C214.17 85.9323 215.668 85.3911 217.605 85.3911C218.334 85.3911 219.058 85.488 219.775 85.6816L219.604 88.2451C219.069 88.1426 218.499 88.0913 217.896 88.0913C216.87 88.0913 216.078 88.3932 215.52 88.9971C214.962 89.5895 214.683 90.444 214.683 91.5605V93.5088H218.63V95.9526H214.683V112H211.521ZM231.072 96.3457C230.593 96.266 230.075 96.2261 229.517 96.2261C227.443 96.2261 226.036 97.109 225.295 98.875V112H222.134V93.5088H225.21L225.261 95.645C226.298 93.993 227.768 93.167 229.67 93.167C230.286 93.167 230.753 93.2467 231.072 93.4062V96.3457ZM232.815 102.583C232.815 100.772 233.168 99.1427 233.875 97.6958C234.592 96.2489 235.583 95.1323 236.848 94.3462C238.124 93.5601 239.577 93.167 241.206 93.167C243.724 93.167 245.758 94.0386 247.307 95.7817C248.868 97.5249 249.648 99.8434 249.648 102.737V102.959C249.648 104.76 249.301 106.377 248.606 107.813C247.922 109.237 246.937 110.348 245.649 111.146C244.373 111.943 242.904 112.342 241.24 112.342C238.734 112.342 236.7 111.47 235.139 109.727C233.59 107.984 232.815 105.677 232.815 102.806V102.583ZM235.994 102.959C235.994 105.01 236.466 106.657 237.412 107.898C238.369 109.14 239.645 109.761 241.24 109.761C242.847 109.761 244.123 109.135 245.068 107.881C246.014 106.617 246.487 104.851 246.487 102.583C246.487 100.556 246.003 98.9149 245.034 97.6616C244.077 96.397 242.801 95.7646 241.206 95.7646C239.645 95.7646 238.386 96.3856 237.429 97.6274C236.472 98.8693 235.994 100.647 235.994 102.959ZM256.604 93.5088L256.707 95.833C258.119 94.0557 259.965 93.167 262.244 93.167C266.152 93.167 268.123 95.3716 268.157 99.7808V112H264.995V99.7637C264.984 98.4307 264.676 97.4451 264.072 96.8071C263.48 96.1691 262.551 95.8501 261.287 95.8501C260.261 95.8501 259.361 96.1235 258.586 96.6704C257.812 97.2173 257.208 97.9351 256.775 98.8237V112H253.613V93.5088H256.604ZM277.214 89.0312V93.5088H280.667V95.9526H277.214V107.42C277.214 108.16 277.368 108.719 277.676 109.095C277.983 109.459 278.507 109.642 279.248 109.642C279.613 109.642 280.114 109.573 280.752 109.437V112C279.92 112.228 279.111 112.342 278.325 112.342C276.912 112.342 275.847 111.915 275.129 111.06C274.412 110.206 274.053 108.992 274.053 107.42V95.9526H270.686V93.5088H274.053V89.0312H277.214ZM292.048 112.342C289.542 112.342 287.502 111.521 285.93 109.881C284.358 108.229 283.572 106.024 283.572 103.267V102.686C283.572 100.852 283.919 99.2168 284.614 97.7812C285.321 96.3343 286.3 95.2064 287.554 94.3975C288.818 93.5771 290.186 93.167 291.655 93.167C294.059 93.167 295.928 93.9588 297.261 95.5425C298.594 97.1261 299.26 99.3934 299.26 102.344V103.66H286.733C286.779 105.483 287.309 106.958 288.323 108.086C289.348 109.203 290.647 109.761 292.219 109.761C293.336 109.761 294.281 109.533 295.056 109.078C295.831 108.622 296.509 108.018 297.09 107.266L299.021 108.77C297.472 111.151 295.147 112.342 292.048 112.342ZM291.655 95.7646C290.379 95.7646 289.308 96.2318 288.442 97.166C287.576 98.0889 287.041 99.3877 286.836 101.062H296.099V100.823C296.007 99.2168 295.575 97.9749 294.8 97.0977C294.025 96.209 292.977 95.7646 291.655 95.7646ZM305.925 93.5088L306.028 95.833C307.441 94.0557 309.286 93.167 311.565 93.167C315.473 93.167 317.444 95.3716 317.478 99.7808V112H314.316V99.7637C314.305 98.4307 313.997 97.4451 313.394 96.8071C312.801 96.1691 311.873 95.8501 310.608 95.8501C309.583 95.8501 308.682 96.1235 307.908 96.6704C307.133 97.2173 306.529 97.9351 306.096 98.8237V112H302.935V93.5088H305.925ZM321.477 102.601C321.477 99.7637 322.149 97.485 323.494 95.7646C324.838 94.0329 326.598 93.167 328.774 93.167C330.939 93.167 332.654 93.9076 333.918 95.3887V85.75H337.08V112H334.175L334.021 110.018C332.756 111.567 330.996 112.342 328.74 112.342C326.598 112.342 324.849 111.465 323.494 109.71C322.149 107.955 321.477 105.665 321.477 102.84V102.601ZM324.639 102.959C324.639 105.056 325.072 106.696 325.938 107.881C326.803 109.066 328 109.659 329.526 109.659C331.532 109.659 332.996 108.759 333.918 106.958V98.4648C332.973 96.7217 331.52 95.8501 329.561 95.8501C328.011 95.8501 326.803 96.4482 325.938 97.6445C325.072 98.8408 324.639 100.612 324.639 102.959Z" fill="black"/>
</svg>
